include "include/hUGE.inc"

SECTION "Song Data", ROMX

song_descriptor::
db 4
dw order_cnt
dw order1, order2, order3, order4
dw duty_instruments, wave_instruments, noise_instruments
dw routines
dw waves

order_cnt: db 34
order1: dw P0,P4,P8,P11,P14,P4,P8,P17,P18,P21,P24,P27,P30,P21,P33,P34,P35
order2: dw P1,P5,P9,P12,P15,P5,P9,P12,P19,P22,P25,P28,P31,P22,P25,P31,P31
order3: dw P2,P6,P10,P13,P16,P6,P10,P13,P20,P23,P26,P29,P32,P23,P26,P32,P32
order4: dw P3,P7,P7,P7,P7,P7,P7,P7,P7,P7,P7,P7,P7,P7,P7,P7,P7

P0:
 dn D_6,1,$F04
 dn ___,0,$000
 dn ___,0,$000
 dn ___,0,$000
 dn ___,0,$462
 dn ___,0,$462
 dn ___,0,$462
 dn ___,0,$462
 dn C#6,1,$000
 dn ___,0,$000
 dn ___,0,$000
 dn ___,0,$000
 dn ___,0,$462
 dn ___,0,$462
 dn B_5,1,$000
 dn ___,0,$462
 dn A_5,1,$000
 dn ___,0,$462
 dn ___,0,$462
 dn ___,0,$462
 dn F#5,1,$000
 dn ___,0,$462
 dn ___,0,$462
 dn ___,0,$462
 dn D_5,1,$000
 dn ___,0,$462
 dn ___,0,$462
 dn ___,0,$462
 dn F#5,1,$000
 dn ___,0,$462
 dn ___,0,$462
 dn ___,0,$462
 dn A_5,1,$000
 dn ___,0,$462
 dn ___,0,$462
 dn ___,0,$462
 dn A_5,1,$000
 dn ___,0,$462
 dn B_5,1,$000
 dn ___,0,$462
 dn A_5,1,$000
 dn ___,0,$462
 dn ___,0,$462
 dn ___,0,$462
 dn A_5,1,$000
 dn ___,0,$462
 dn B_5,1,$000
 dn ___,0,$462
 dn A_5,1,$000
 dn ___,0,$462
 dn ___,0,$462
 dn ___,0,$462
 dn ___,0,$462
 dn ___,0,$462
 dn ___,0,$462
 dn ___,0,$462
 dn ___,0,$462
 dn ___,0,$462
 dn ___,0,$462
 dn ___,0,$462
 dn ___,0,$462
 dn ___,0,$462
 dn ___,0,$462
 dn ___,0,$462

P1:
 dn D_4,2,$CFF
 dn A_4,2,$C77
 dn F#4,2,$CFF
 dn D_4,2,$C77
 dn A_4,2,$CFF
 dn F#4,2,$C77
 dn F#4,2,$CFF
 dn A_4,2,$C77
 dn A_4,2,$CFF
 dn F#4,2,$C77
 dn D_5,2,$CFF
 dn A_4,2,$C77
 dn A_4,2,$CFF
 dn D_5,2,$C77
 dn D_5,2,$CFF
 dn A_4,2,$C77
 dn F#5,2,$CFF
 dn D_5,2,$C77
 dn D_5,2,$CFF
 dn F#5,2,$C77
 dn A_4,2,$CFF
 dn D_5,2,$C77
 dn D_5,2,$CFF
 dn A_4,2,$C77
 dn A_4,2,$CFF
 dn D_5,2,$C77
 dn F#4,2,$CFF
 dn A_4,2,$C77
 dn D_4,2,$CFF
 dn F#4,2,$C77
 dn F#4,2,$CFF
 dn D_4,2,$C77
 dn B_4,2,$CFF
 dn F#4,2,$C77
 dn D_5,2,$CFF
 dn B_4,2,$C77
 dn G_5,2,$CFF
 dn D_5,2,$C77
 dn D_5,2,$CFF
 dn G_5,2,$C77
 dn B_4,2,$CFF
 dn D_5,2,$C77
 dn G_4,2,$CFF
 dn B_4,2,$C77
 dn D_4,2,$CFF
 dn G_4,2,$C77
 dn G_4,2,$CFF
 dn D_4,2,$C77
 dn C#4,2,$CFF
 dn G_4,2,$C77
 dn E_4,2,$CFF
 dn C#4,2,$C77
 dn A_4,2,$CFF
 dn E_4,2,$C77
 dn E_4,2,$CFF
 dn A_4,2,$C77
 dn A_4,2,$CFF
 dn E_4,2,$C77
 dn C#5,2,$CFF
 dn A_4,2,$C77
 dn E_5,2,$CFF
 dn C#5,2,$C77
 dn C#5,2,$CFF
 dn E_5,2,$C77

P2:
 dn D_4,11,$000
 dn ___,0,$000
 dn ___,0,$000
 dn ___,0,$000
 dn ___,0,$000
 dn ___,0,$000
 dn ___,0,$000
 dn ___,0,$000
 dn ___,0,$000
 dn ___,0,$000
 dn ___,0,$000
 dn ___,0,$000
 dn ___,0,$000
 dn ___,0,$E00
 dn D_4,11,$000
 dn ___,0,$E00
 dn D_4,11,$000
 dn ___,0,$E00
 dn D_4,11,$000
 dn ___,0,$000
 dn ___,0,$000
 dn ___,0,$000
 dn ___,0,$000
 dn ___,0,$000
 dn ___,0,$000
 dn ___,0,$000
 dn ___,0,$000
 dn ___,0,$000
 dn ___,0,$000
 dn ___,0,$E00
 dn D_4,11,$000
 dn ___,0,$E00
 dn B_3,11,$000
 dn ___,0,$000
 dn ___,0,$000
 dn ___,0,$000
 dn ___,0,$000
 dn ___,0,$000
 dn ___,0,$000
 dn ___,0,$000
 dn ___,0,$000
 dn ___,0,$000
 dn ___,0,$000
 dn ___,0,$000
 dn ___,0,$000
 dn ___,0,$E00
 dn B_3,11,$000
 dn ___,0,$E00
 dn C#4,11,$000
 dn ___,0,$E00
 dn C#4,11,$000
 dn ___,0,$000
 dn ___,0,$000
 dn ___,0,$000
 dn ___,0,$000
 dn ___,0,$000
 dn ___,0,$000
 dn ___,0,$000
 dn ___,0,$000
 dn ___,0,$000
 dn ___,0,$000
 dn ___,0,$000
 dn ___,0,$000
 dn ___,0,$000

P3:
 dn ___,0,$8FF
 dn ___,0,$8FD
 dn ___,0,$8FF
 dn ___,0,$8DF
 dn ___,0,$8FF
 dn ___,0,$8FD
 dn ___,0,$8FF
 dn ___,0,$8DF
 dn ___,0,$8FF
 dn ___,0,$8FD
 dn ___,0,$8FF
 dn ___,0,$8DF
 dn ___,0,$8FF
 dn ___,0,$8FD
 dn ___,0,$8FF
 dn ___,0,$8DF
 dn ___,0,$8FF
 dn ___,0,$8FD
 dn ___,0,$8FF
 dn ___,0,$8DF
 dn ___,0,$8FF
 dn ___,0,$8FD
 dn ___,0,$8FF
 dn ___,0,$8DF
 dn ___,0,$8FF
 dn ___,0,$8FD
 dn ___,0,$8FF
 dn ___,0,$8DF
 dn ___,0,$8FF
 dn ___,0,$8FD
 dn ___,0,$8FF
 dn ___,0,$8DF
 dn ___,0,$8FF
 dn ___,0,$8FD
 dn ___,0,$8FF
 dn ___,0,$8DF
 dn ___,0,$8FF
 dn ___,0,$8FD
 dn ___,0,$8FF
 dn ___,0,$8DF
 dn ___,0,$8FF
 dn ___,0,$8FD
 dn ___,0,$8FF
 dn ___,0,$8DF
 dn ___,0,$8FF
 dn ___,0,$8FD
 dn ___,0,$8FF
 dn ___,0,$8DF
 dn ___,0,$8FF
 dn ___,0,$8FD
 dn ___,0,$8FF
 dn ___,0,$8DF
 dn ___,0,$8FF
 dn ___,0,$8FD
 dn ___,0,$8FF
 dn ___,0,$8DF
 dn ___,0,$8FF
 dn ___,0,$8FD
 dn ___,0,$8FF
 dn ___,0,$8DF
 dn ___,0,$8FF
 dn ___,0,$8FD
 dn ___,0,$8FF
 dn ___,0,$8DF

P4:
 dn A_5,1,$000
 dn ___,0,$000
 dn G#5,1,$000
 dn G_5,1,$000
 dn F#5,1,$000
 dn ___,0,$000
 dn ___,0,$462
 dn ___,0,$462
 dn ___,0,$462
 dn ___,0,$462
 dn ___,0,$462
 dn ___,0,$462
 dn ___,0,$462
 dn ___,0,$462
 dn ___,0,$462
 dn ___,0,$462
 dn ___,0,$462
 dn ___,0,$462
 dn ___,0,$462
 dn ___,0,$462
 dn F#5,1,$000
 dn ___,0,$000
 dn ___,0,$422
 dn ___,0,$422
 dn G_5,1,$000
 dn ___,0,$000
 dn ___,0,$422
 dn ___,0,$422
 dn A_5,1,$000
 dn ___,0,$000
 dn ___,0,$422
 dn ___,0,$422
 dn F#6,1,$000
 dn ___,0,$000
 dn ___,0,$462
 dn ___,0,$462
 dn ___,0,$462
 dn ___,0,$462
 dn ___,0,$462
 dn ___,0,$462
 dn F#6,1,$000
 dn ___,0,$000
 dn ___,0,$462
 dn ___,0,$462
 dn ___,0,$462
 dn ___,0,$462
 dn ___,0,$462
 dn ___,0,$462
 dn D_6,1,$000
 dn ___,0,$000
 dn ___,0,$462
 dn ___,0,$462
 dn ___,0,$462
 dn ___,0,$462
 dn ___,0,$462
 dn ___,0,$462
 dn ___,0,$462
 dn ___,0,$462
 dn ___,0,$462
 dn ___,0,$462
 dn ___,0,$462
 dn ___,0,$462
 dn ___,0,$462
 dn ___,0,$462

P5:
 dn D_4,2,$CFF
 dn A_4,2,$C77
 dn F#4,2,$CFF
 dn D_4,2,$C77
 dn A_4,2,$CFF
 dn F#4,2,$C77
 dn F#4,2,$CFF
 dn A_4,2,$C77
 dn D_4,2,$CFF
 dn A_4,2,$C77
 dn F#4,2,$CFF
 dn D_4,2,$C77
 dn A_4,2,$CFF
 dn F#4,2,$C77
 dn F#4,2,$CFF
 dn A_4,2,$C77
 dn D_4,2,$CFF
 dn A_4,2,$C77
 dn F#4,2,$CFF
 dn D_4,2,$C77
 dn A_4,2,$CFF
 dn F#4,2,$C77
 dn F#4,2,$CFF
 dn A_4,2,$C77
 dn D_4,2,$CFF
 dn A_4,2,$C77
 dn F#4,2,$CFF
 dn D_4,2,$C77
 dn A_4,2,$CFF
 dn F#4,2,$C77
 dn F#4,2,$CFF
 dn A_4,2,$C77
 dn D_4,2,$CFF
 dn A_4,2,$C77
 dn F#4,2,$CFF
 dn D_4,2,$C77
 dn A_4,2,$CFF
 dn F#4,2,$C77
 dn F#4,2,$CFF
 dn A_4,2,$C77
 dn D_4,2,$CFF
 dn A_4,2,$C77
 dn F#4,2,$CFF
 dn D_4,2,$C77
 dn A_4,2,$CFF
 dn F#4,2,$C77
 dn F#4,2,$CFF
 dn A_4,2,$C77
 dn D_4,2,$CFF
 dn A_4,2,$C77
 dn F#4,2,$CFF
 dn D_4,2,$C77
 dn A_4,2,$CFF
 dn F#4,2,$C77
 dn F#4,2,$CFF
 dn A_4,2,$C77
 dn D_4,2,$CFF
 dn A_4,2,$C77
 dn F#4,2,$CFF
 dn D_4,2,$C77
 dn A_4,2,$CFF
 dn F#4,2,$C77
 dn F#4,2,$CFF
 dn A_4,2,$C77

P6:
 dn D_5,3,$26F
 dn D_4,11,$000
 dn ___,0,$000
 dn ___,0,$000
 dn D_5,11,$000
 dn ___,0,$E00
 dn D_4,11,$000
 dn ___,0,$E00
 dn D_5,3,$26F
 dn D_4,11,$000
 dn ___,0,$000
 dn ___,0,$E00
 dn D_5,11,$000
 dn ___,0,$E00
 dn D_4,11,$000
 dn ___,0,$E00
 dn D_5,3,$26F
 dn D_4,11,$000
 dn ___,0,$000
 dn ___,0,$000
 dn D_5,11,$000
 dn ___,0,$E00
 dn D_4,11,$000
 dn ___,0,$E00
 dn D_5,3,$26F
 dn D_4,11,$000
 dn ___,0,$000
 dn ___,0,$E00
 dn D_5,11,$000
 dn ___,0,$E00
 dn D_4,11,$000
 dn ___,0,$E00
 dn D_5,3,$26F
 dn D_4,11,$000
 dn ___,0,$000
 dn ___,0,$000
 dn D_5,11,$000
 dn ___,0,$E00
 dn D_4,11,$000
 dn ___,0,$E00
 dn D_5,3,$26F
 dn D_4,11,$000
 dn ___,0,$000
 dn ___,0,$E00
 dn D_5,11,$000
 dn ___,0,$E00
 dn D_4,11,$000
 dn ___,0,$E00
 dn D_5,3,$26F
 dn D_4,11,$000
 dn ___,0,$000
 dn ___,0,$000
 dn D_5,11,$000
 dn ___,0,$E00
 dn D_4,11,$000
 dn ___,0,$E00
 dn D_5,3,$26F
 dn D_4,11,$000
 dn ___,0,$000
 dn ___,0,$E00
 dn D_5,11,$000
 dn ___,0,$E00
 dn D_4,11,$000
 dn ___,0,$E00

P7:
 dn C_5,1,$8FF
 dn ___,0,$8FD
 dn C_6,2,$8FF
 dn ___,0,$8DF
 dn C_5,3,$8FF
 dn ___,0,$8FD
 dn C_6,2,$8FF
 dn ___,0,$8DF
 dn C_5,1,$8FF
 dn ___,0,$8FD
 dn C_5,1,$8FF
 dn ___,0,$8DF
 dn C_5,3,$8FF
 dn ___,0,$8FD
 dn C_6,2,$8FF
 dn ___,0,$8DF
 dn C_5,1,$8FF
 dn ___,0,$8FD
 dn C_6,2,$8FF
 dn ___,0,$8DF
 dn C_5,3,$8FF
 dn ___,0,$8FD
 dn C_6,2,$8FF
 dn ___,0,$8DF
 dn C_5,1,$8FF
 dn ___,0,$8FD
 dn C_5,1,$8FF
 dn ___,0,$8DF
 dn C_5,3,$8FF
 dn ___,0,$8FD
 dn C_5,1,$8FF
 dn ___,0,$8DF
 dn C_5,1,$8FF
 dn ___,0,$8FD
 dn C_6,2,$8FF
 dn ___,0,$8DF
 dn C_5,3,$8FF
 dn ___,0,$8FD
 dn C_6,2,$8FF
 dn ___,0,$8DF
 dn C_5,1,$8FF
 dn ___,0,$8FD
 dn C_5,1,$8FF
 dn ___,0,$8DF
 dn C_5,3,$8FF
 dn ___,0,$8FD
 dn C_6,2,$8FF
 dn ___,0,$8DF
 dn C_5,1,$8FF
 dn ___,0,$8FD
 dn C_6,2,$8FF
 dn ___,0,$8DF
 dn C_5,3,$8FF
 dn ___,0,$8FD
 dn C_6,2,$8FF
 dn ___,0,$8DF
 dn C_5,1,$8FF
 dn ___,0,$8FD
 dn C_5,1,$8FF
 dn ___,0,$8DF
 dn C_5,3,$8FF
 dn ___,0,$8FD
 dn C_5,1,$8FF
 dn ___,0,$8DF

P8:
 dn A_5,1,$000
 dn ___,0,$000
 dn G#5,1,$000
 dn G_5,1,$000
 dn F#5,1,$000
 dn ___,0,$000
 dn ___,0,$462
 dn ___,0,$462
 dn ___,0,$462
 dn ___,0,$462
 dn ___,0,$462
 dn ___,0,$462
 dn ___,0,$462
 dn ___,0,$462
 dn ___,0,$462
 dn ___,0,$462
 dn ___,0,$462
 dn ___,0,$462
 dn ___,0,$462
 dn ___,0,$462
 dn F#5,1,$000
 dn ___,0,$000
 dn ___,0,$422
 dn ___,0,$422
 dn G_5,1,$000
 dn ___,0,$000
 dn ___,0,$422
 dn ___,0,$422
 dn F#5,1,$000
 dn ___,0,$000
 dn ___,0,$422
 dn ___,0,$422
 dn A_5,1,$000
 dn ___,0,$000
 dn ___,0,$462
 dn ___,0,$462
 dn ___,0,$462
 dn ___,0,$462
 dn ___,0,$462
 dn ___,0,$462
 dn A_5,1,$000
 dn ___,0,$000
 dn ___,0,$462
 dn ___,0,$462
 dn ___,0,$462
 dn ___,0,$462
 dn ___,0,$462
 dn ___,0,$462
 dn G_5,1,$000
 dn ___,0,$000
 dn ___,0,$462
 dn ___,0,$462
 dn ___,0,$462
 dn ___,0,$462
 dn ___,0,$462
 dn ___,0,$462
 dn ___,0,$462
 dn ___,0,$462
 dn ___,0,$462
 dn ___,0,$462
 dn ___,0,$462
 dn ___,0,$462
 dn ___,0,$462
 dn ___,0,$462

P9:
 dn D_4,2,$CFF
 dn A_4,2,$C77
 dn F#4,2,$CFF
 dn D_4,2,$C77
 dn A_4,2,$CFF
 dn F#4,2,$C77
 dn F#4,2,$CFF
 dn A_4,2,$C77
 dn D_4,2,$CFF
 dn A_4,2,$C77
 dn F#4,2,$CFF
 dn D_4,2,$C77
 dn A_4,2,$CFF
 dn F#4,2,$C77
 dn F#4,2,$CFF
 dn A_4,2,$C77
 dn D_4,2,$CFF
 dn A_4,2,$C77
 dn F#4,2,$CFF
 dn D_4,2,$C77
 dn A_4,2,$CFF
 dn F#4,2,$C77
 dn F#4,2,$CFF
 dn A_4,2,$C77
 dn D_4,2,$CFF
 dn A_4,2,$C77
 dn F#4,2,$CFF
 dn D_4,2,$C77
 dn A_4,2,$CFF
 dn F#4,2,$C77
 dn F#4,2,$CFF
 dn A_4,2,$C77
 dn C#4,2,$CFF
 dn E_4,2,$C77
 dn E_4,2,$CFF
 dn C#4,2,$C77
 dn A_4,2,$CFF
 dn E_4,2,$C77
 dn E_4,2,$CFF
 dn A_4,2,$C77
 dn C#4,2,$CFF
 dn E_4,2,$C77
 dn E_4,2,$CFF
 dn C#4,2,$C77
 dn A_4,2,$CFF
 dn E_4,2,$C77
 dn E_4,2,$CFF
 dn A_4,2,$C77
 dn C#4,2,$CFF
 dn E_4,2,$C77
 dn E_4,2,$CFF
 dn C#4,2,$C77
 dn A_4,2,$CFF
 dn E_4,2,$C77
 dn E_4,2,$CFF
 dn A_4,2,$C77
 dn C#4,2,$CFF
 dn E_4,2,$C77
 dn E_4,2,$CFF
 dn C#4,2,$C77
 dn A_4,2,$CFF
 dn E_4,2,$C77
 dn E_4,2,$CFF
 dn A_4,2,$C77

P10:
 dn D_5,3,$26F
 dn D_4,11,$000
 dn ___,0,$000
 dn ___,0,$000
 dn D_5,11,$000
 dn ___,0,$E00
 dn D_4,11,$000
 dn ___,0,$E00
 dn D_5,3,$26F
 dn D_4,11,$000
 dn ___,0,$000
 dn ___,0,$E00
 dn D_5,11,$000
 dn ___,0,$E00
 dn D_4,11,$000
 dn ___,0,$E00
 dn D_5,3,$26F
 dn D_4,11,$000
 dn ___,0,$000
 dn ___,0,$000
 dn D_5,11,$000
 dn ___,0,$E00
 dn D_4,11,$000
 dn ___,0,$E00
 dn D_5,3,$26F
 dn D_4,11,$000
 dn ___,0,$000
 dn ___,0,$E00
 dn D_5,11,$000
 dn ___,0,$E00
 dn D_4,11,$000
 dn ___,0,$E00
 dn D_5,3,$26F
 dn A_3,11,$000
 dn ___,0,$000
 dn ___,0,$000
 dn A_4,11,$000
 dn ___,0,$E00
 dn A_3,11,$000
 dn ___,0,$E00
 dn D_5,3,$26F
 dn A_3,11,$000
 dn ___,0,$000
 dn ___,0,$E00
 dn A_4,11,$000
 dn ___,0,$E00
 dn A_3,11,$000
 dn ___,0,$E00
 dn D_5,3,$26F
 dn A_3,11,$000
 dn ___,0,$000
 dn ___,0,$000
 dn A_4,11,$000
 dn ___,0,$E00
 dn A_3,11,$000
 dn ___,0,$E00
 dn D_5,3,$26F
 dn A_3,11,$000
 dn ___,0,$000
 dn ___,0,$E00
 dn A_4,11,$000
 dn ___,0,$E00
 dn A_3,11,$000
 dn ___,0,$E00

P11:
 dn G_5,1,$000
 dn ___,0,$000
 dn F#5,1,$000
 dn F_5,1,$000
 dn E_5,1,$000
 dn ___,0,$000
 dn ___,0,$462
 dn ___,0,$462
 dn ___,0,$462
 dn ___,0,$462
 dn ___,0,$462
 dn ___,0,$462
 dn ___,0,$462
 dn ___,0,$462
 dn ___,0,$462
 dn ___,0,$462
 dn ___,0,$462
 dn ___,0,$462
 dn ___,0,$462
 dn ___,0,$462
 dn E_5,1,$000
 dn ___,0,$000
 dn ___,0,$422
 dn ___,0,$422
 dn F#5,1,$000
 dn ___,0,$000
 dn ___,0,$422
 dn ___,0,$422
 dn G_5,1,$000
 dn ___,0,$000
 dn ___,0,$422
 dn ___,0,$422
 dn A_5,1,$000
 dn ___,0,$000
 dn G#5,1,$000
 dn G_5,1,$000
 dn F#5,1,$000
 dn ___,0,$000
 dn ___,0,$462
 dn ___,0,$462
 dn ___,0,$462
 dn ___,0,$462
 dn ___,0,$462
 dn ___,0,$462
 dn ___,0,$462
 dn ___,0,$462
 dn ___,0,$462
 dn ___,0,$462
 dn ___,0,$462
 dn ___,0,$462
 dn ___,0,$462
 dn ___,0,$462
 dn F#5,1,$000
 dn ___,0,$000
 dn ___,0,$422
 dn ___,0,$422
 dn G#5,1,$000
 dn ___,0,$000
 dn ___,0,$422
 dn ___,0,$422
 dn F#5,1,$000
 dn ___,0,$000
 dn ___,0,$422
 dn ___,0,$422

P12:
 dn G_3,2,$CFF
 dn B_3,2,$C77
 dn B_3,2,$CFF
 dn G_3,2,$C77
 dn D_4,2,$CFF
 dn B_3,2,$C77
 dn B_3,2,$CFF
 dn D_4,2,$C77
 dn G_3,2,$CFF
 dn B_3,2,$C77
 dn B_3,2,$CFF
 dn G_3,2,$C77
 dn D_4,2,$CFF
 dn B_3,2,$C77
 dn B_3,2,$CFF
 dn D_4,2,$C77
 dn G_3,2,$CFF
 dn B_3,2,$C77
 dn B_3,2,$CFF
 dn G_3,2,$C77
 dn D_4,2,$CFF
 dn B_3,2,$C77
 dn B_3,2,$CFF
 dn D_4,2,$C77
 dn G_3,2,$CFF
 dn B_3,2,$C77
 dn B_3,2,$CFF
 dn G_3,2,$C77
 dn D_4,2,$CFF
 dn B_3,2,$C77
 dn B_3,2,$CFF
 dn D_4,2,$C77
 dn D_4,2,$CFF
 dn A_4,2,$C77
 dn F#4,2,$CFF
 dn D_4,2,$C77
 dn A_4,2,$CFF
 dn F#4,2,$C77
 dn F#4,2,$CFF
 dn A_4,2,$C77
 dn D_4,2,$CFF
 dn A_4,2,$C77
 dn F#4,2,$CFF
 dn D_4,2,$C77
 dn A_4,2,$CFF
 dn F#4,2,$C77
 dn F#4,2,$CFF
 dn A_4,2,$C77
 dn D_4,2,$CFF
 dn A_4,2,$C77
 dn F#4,2,$CFF
 dn D_4,2,$C77
 dn A_4,2,$CFF
 dn F#4,2,$C77
 dn F#4,2,$CFF
 dn A_4,2,$C77
 dn D_4,2,$CFF
 dn A_4,2,$C77
 dn F#4,2,$CFF
 dn D_4,2,$C77
 dn A_4,2,$CFF
 dn F#4,2,$C77
 dn F#4,2,$CFF
 dn A_4,2,$C77

P13:
 dn D_5,3,$26F
 dn G_3,11,$000
 dn ___,0,$000
 dn ___,0,$000
 dn G_4,11,$000
 dn ___,0,$E00
 dn G_3,11,$000
 dn ___,0,$E00
 dn D_5,3,$26F
 dn G_3,11,$000
 dn ___,0,$000
 dn ___,0,$E00
 dn G_4,11,$000
 dn ___,0,$E00
 dn G_3,11,$000
 dn ___,0,$E00
 dn D_5,3,$26F
 dn G_3,11,$000
 dn ___,0,$000
 dn ___,0,$000
 dn G_4,11,$000
 dn ___,0,$E00
 dn G_3,11,$000
 dn ___,0,$E00
 dn D_5,3,$26F
 dn G_3,11,$000
 dn ___,0,$000
 dn ___,0,$E00
 dn G_4,11,$000
 dn ___,0,$E00
 dn G_3,11,$000
 dn ___,0,$E00
 dn D_5,3,$26F
 dn D_4,11,$000
 dn ___,0,$000
 dn ___,0,$000
 dn D_5,11,$000
 dn ___,0,$E00
 dn D_4,11,$000
 dn ___,0,$E00
 dn D_5,3,$26F
 dn D_4,11,$000
 dn ___,0,$000
 dn ___,0,$E00
 dn D_5,11,$000
 dn ___,0,$E00
 dn D_4,11,$000
 dn ___,0,$E00
 dn D_5,3,$26F
 dn D_4,11,$000
 dn ___,0,$000
 dn ___,0,$000
 dn D_5,11,$000
 dn ___,0,$E00
 dn D_4,11,$000
 dn ___,0,$E00
 dn D_5,3,$26F
 dn D_4,11,$000
 dn ___,0,$000
 dn ___,0,$E00
 dn D_5,11,$000
 dn ___,0,$E00
 dn D_4,11,$000
 dn ___,0,$E00

P14:
 dn E_5,1,$000
 dn ___,0,$000
 dn ___,0,$422
 dn ___,0,$422
 dn A_5,1,$000
 dn ___,0,$000
 dn ___,0,$422
 dn ___,0,$422
 dn E_5,1,$000
 dn ___,0,$000
 dn ___,0,$422
 dn ___,0,$422
 dn F#5,1,$000
 dn ___,0,$000
 dn ___,0,$422
 dn ___,0,$422
 dn G#5,1,$000
 dn ___,0,$000
 dn ___,0,$422
 dn ___,0,$422
 dn E_5,1,$000
 dn ___,0,$000
 dn ___,0,$422
 dn ___,0,$422
 dn E_5,1,$000
 dn ___,0,$000
 dn ___,0,$422
 dn ___,0,$422
 dn B_5,1,$000
 dn ___,0,$000
 dn ___,0,$422
 dn ___,0,$422
 dn A_5,1,$000
 dn ___,0,$000
 dn ___,0,$000
 dn ___,0,$000
 dn ___,0,$422
 dn ___,0,$422
 dn ___,0,$422
 dn ___,0,$422
 dn ___,0,$422
 dn ___,0,$422
 dn ___,0,$422
 dn ___,0,$422
 dn ___,0,$422
 dn ___,0,$422
 dn ___,0,$422
 dn ___,0,$422
 dn ___,0,$422
 dn ___,0,$422
 dn ___,0,$422
 dn ___,0,$422
 dn A_5,1,$000
 dn ___,0,$000
 dn ___,0,$422
 dn ___,0,$422
 dn A_5,1,$000
 dn ___,0,$000
 dn ___,0,$422
 dn ___,0,$422
 dn A_5,1,$000
 dn ___,0,$000
 dn ___,0,$422
 dn ___,0,$422

P15:
 dn A_3,2,$CFF
 dn C#4,2,$C77
 dn C#4,2,$CFF
 dn A_3,2,$C77
 dn E_4,2,$CFF
 dn C#4,2,$C77
 dn C#4,2,$CFF
 dn E_4,2,$C77
 dn A_3,2,$CFF
 dn C#4,2,$C77
 dn C#4,2,$CFF
 dn A_3,2,$C77
 dn E_4,2,$CFF
 dn C#4,2,$C77
 dn C#4,2,$CFF
 dn E_4,2,$C77
 dn E_4,2,$CFF
 dn G#4,2,$C77
 dn G#4,2,$CFF
 dn E_4,2,$C77
 dn B_4,2,$CFF
 dn G#4,2,$C77
 dn G#4,2,$CFF
 dn B_4,2,$C77
 dn E_4,2,$CFF
 dn G#4,2,$C77
 dn G#4,2,$CFF
 dn E_4,2,$C77
 dn B_4,2,$CFF
 dn G#4,2,$C77
 dn G#4,2,$CFF
 dn B_4,2,$C77
 dn A_4,2,$CFF
 dn C#5,2,$C77
 dn C#5,2,$CFF
 dn A_4,2,$C77
 dn E_5,2,$CFF
 dn C#5,2,$C77
 dn C#5,2,$CFF
 dn E_5,2,$C77
 dn A_4,2,$CFF
 dn C#5,2,$C77
 dn C#5,2,$CFF
 dn A_4,2,$C77
 dn E_5,2,$CFF
 dn C#5,2,$C77
 dn C#5,2,$CFF
 dn E_5,2,$C77
 dn A_4,2,$CFF
 dn C#5,2,$C77
 dn C#5,2,$CFF
 dn A_4,2,$C77
 dn E_5,2,$CFF
 dn C#5,2,$C77
 dn C#5,2,$CFF
 dn E_5,2,$C77
 dn A_4,2,$CFF
 dn C#5,2,$C77
 dn C#5,2,$CFF
 dn A_4,2,$C77
 dn E_5,2,$CFF
 dn C#5,2,$C77
 dn C#5,2,$CFF
 dn E_5,2,$C77

P16:
 dn D_5,3,$26F
 dn A_3,11,$000
 dn ___,0,$000
 dn ___,0,$000
 dn A_4,11,$000
 dn ___,0,$E00
 dn A_3,11,$000
 dn ___,0,$E00
 dn D_5,3,$26F
 dn A_3,11,$000
 dn ___,0,$000
 dn ___,0,$E00
 dn A_4,11,$000
 dn ___,0,$E00
 dn A_3,11,$000
 dn ___,0,$E00
 dn D_5,3,$26F
 dn E_4,11,$000
 dn ___,0,$000
 dn ___,0,$000
 dn E_5,11,$000
 dn ___,0,$E00
 dn E_4,11,$000
 dn ___,0,$E00
 dn D_5,3,$26F
 dn E_4,11,$000
 dn ___,0,$000
 dn ___,0,$E00
 dn E_5,11,$000
 dn ___,0,$E00
 dn E_4,11,$000
 dn ___,0,$E00
 dn D_5,3,$26F
 dn A_3,11,$000
 dn ___,0,$000
 dn ___,0,$000
 dn A_4,11,$000
 dn ___,0,$E00
 dn A_3,11,$000
 dn ___,0,$E00
 dn D_5,3,$26F
 dn A_3,11,$000
 dn ___,0,$000
 dn ___,0,$E00
 dn A_4,11,$000
 dn ___,0,$E00
 dn A_3,11,$000
 dn ___,0,$E00
 dn D_5,3,$26F
 dn A_3,11,$000
 dn ___,0,$000
 dn ___,0,$000
 dn A_4,11,$000
 dn ___,0,$E00
 dn A_3,11,$000
 dn ___,0,$E00
 dn D_5,3,$26F
 dn A_3,11,$000
 dn ___,0,$000
 dn ___,0,$E00
 dn A_4,11,$000
 dn ___,0,$E00
 dn A_3,11,$000
 dn ___,0,$E00

P17:
 dn G_5,1,$000
 dn ___,0,$000
 dn F#5,1,$000
 dn F_5,1,$000
 dn E_5,1,$000
 dn ___,0,$000
 dn ___,0,$462
 dn ___,0,$462
 dn ___,0,$462
 dn ___,0,$462
 dn ___,0,$462
 dn ___,0,$462
 dn ___,0,$462
 dn ___,0,$462
 dn ___,0,$462
 dn ___,0,$462
 dn ___,0,$462
 dn ___,0,$462
 dn ___,0,$462
 dn ___,0,$462
 dn B_5,1,$000
 dn ___,0,$000
 dn ___,0,$422
 dn ___,0,$422
 dn C#6,1,$000
 dn ___,0,$000
 dn ___,0,$422
 dn ___,0,$422
 dn B_5,1,$000
 dn ___,0,$000
 dn ___,0,$422
 dn ___,0,$422
 dn B_5,1,$000
 dn ___,0,$000
 dn B_5,1,$000
 dn A#5,1,$000
 dn A_5,1,$000
 dn ___,0,$000
 dn ___,0,$462
 dn ___,0,$462
 dn ___,0,$462
 dn ___,0,$462
 dn ___,0,$462
 dn ___,0,$462
 dn ___,0,$462
 dn ___,0,$462
 dn ___,0,$462
 dn ___,0,$462
 dn ___,0,$462
 dn ___,0,$462
 dn ___,0,$462
 dn ___,0,$462
 dn A_5,1,$000
 dn ___,0,$000
 dn ___,0,$422
 dn ___,0,$422
 dn G_5,1,$000
 dn ___,0,$000
 dn ___,0,$422
 dn ___,0,$422
 dn F#5,1,$000
 dn ___,0,$000
 dn ___,0,$422
 dn ___,0,$422

P18:
 dn B_5,1,$000
 dn ___,0,$462
 dn ___,0,$462
 dn ___,0,$462
 dn B_5,1,$000
 dn ___,0,$000
 dn ___,0,$462
 dn ___,0,$462
 dn ___,0,$462
 dn ___,0,$462
 dn ___,0,$462
 dn ___,0,$462
 dn D_5,1,$000
 dn ___,0,$000
 dn ___,0,$462
 dn ___,0,$462
 dn C#5,1,$000
 dn ___,0,$000
 dn ___,0,$462
 dn ___,0,$462
 dn A_4,1,$000
 dn ___,0,$000
 dn ___,0,$000
 dn ___,0,$000
 dn ___,0,$462
 dn ___,0,$462
 dn ___,0,$462
 dn ___,0,$462
 dn C#5,1,$000
 dn ___,0,$000
 dn ___,0,$462
 dn ___,0,$462
 dn D_5,1,$000
 dn ___,0,$000
 dn ___,0,$000
 dn ___,0,$000
 dn ___,0,$462
 dn ___,0,$462
 dn ___,0,$462
 dn ___,0,$462
 dn ___,0,$462
 dn ___,0,$462
 dn ___,0,$462
 dn ___,0,$462
 dn ___,0,$462
 dn ___,0,$462
 dn ___,0,$462
 dn ___,0,$462
 dn ___,0,$462
 dn ___,0,$462
 dn ___,0,$462
 dn ___,0,$462
 dn D_5,1,$000
 dn ___,0,$000
 dn ___,0,$462
 dn ___,0,$462
 dn D_5,1,$000
 dn ___,0,$000
 dn ___,0,$462
 dn ___,0,$462
 dn D_5,1,$000
 dn ___,0,$000
 dn ___,0,$462
 dn ___,0,$462

P19:
 dn E_4,2,$CFF
 dn G#4,2,$C77
 dn G#4,2,$CFF
 dn E_4,2,$C77
 dn B_4,2,$CFF
 dn G#4,2,$C77
 dn G#4,2,$CFF
 dn B_4,2,$C77
 dn E_4,2,$CFF
 dn G#4,2,$C77
 dn G#4,2,$CFF
 dn E_4,2,$C77
 dn B_4,2,$CFF
 dn G#4,2,$C77
 dn G#4,2,$CFF
 dn B_4,2,$C77
 dn A_4,2,$CFF
 dn C#5,2,$C77
 dn C#5,2,$CFF
 dn A_4,2,$C77
 dn E_5,2,$CFF
 dn C#5,2,$C77
 dn C#5,2,$CFF
 dn E_5,2,$C77
 dn A_4,2,$CFF
 dn C#5,2,$C77
 dn C#5,2,$CFF
 dn A_4,2,$C77
 dn E_5,2,$CFF
 dn C#5,2,$C77
 dn C#5,2,$CFF
 dn E_5,2,$C77
 dn D_4,2,$CFF
 dn A_4,2,$C77
 dn F#4,2,$CFF
 dn D_4,2,$C77
 dn A_4,2,$CFF
 dn F#4,2,$C77
 dn F#4,2,$CFF
 dn A_4,2,$C77
 dn D_4,2,$CFF
 dn A_4,2,$C77
 dn F#4,2,$CFF
 dn D_4,2,$C77
 dn A_4,2,$CFF
 dn F#4,2,$C77
 dn F#4,2,$CFF
 dn A_4,2,$C77
 dn D_4,2,$CFF
 dn A_4,2,$C77
 dn F#4,2,$CFF
 dn D_4,2,$C77
 dn A_4,2,$CFF
 dn F#4,2,$C77
 dn F#4,2,$CFF
 dn A_4,2,$C77
 dn D_4,2,$CFF
 dn A_4,2,$C77
 dn F#4,2,$CFF
 dn D_4,2,$C77
 dn A_4,2,$CFF
 dn F#4,2,$C77
 dn F#4,2,$CFF
 dn A_4,2,$C77

P20:
 dn D_5,3,$26F
 dn E_3,11,$000
 dn ___,0,$000
 dn ___,0,$000
 dn E_4,11,$000
 dn ___,0,$E00
 dn E_3,11,$000
 dn ___,0,$E00
 dn D_5,3,$26F
 dn E_3,11,$000
 dn ___,0,$000
 dn ___,0,$E00
 dn E_4,11,$000
 dn ___,0,$E00
 dn E_3,11,$000
 dn ___,0,$E00
 dn D_5,3,$26F
 dn A_3,11,$000
 dn ___,0,$000
 dn ___,0,$000
 dn A_4,11,$000
 dn ___,0,$E00
 dn A_3,11,$000
 dn ___,0,$E00
 dn D_5,3,$26F
 dn A_3,11,$000
 dn ___,0,$000
 dn ___,0,$E00
 dn A_4,11,$000
 dn ___,0,$E00
 dn A_3,11,$000
 dn ___,0,$E00
 dn D_5,3,$26F
 dn D_4,11,$000
 dn ___,0,$000
 dn ___,0,$000
 dn D_5,11,$000
 dn ___,0,$E00
 dn D_4,11,$000
 dn ___,0,$E00
 dn D_5,3,$26F
 dn D_4,11,$000
 dn ___,0,$000
 dn ___,0,$E00
 dn D_5,11,$000
 dn ___,0,$E00
 dn D_4,11,$000
 dn ___,0,$E00
 dn D_5,3,$26F
 dn D_4,11,$000
 dn ___,0,$000
 dn ___,0,$000
 dn D_5,11,$000
 dn ___,0,$E00
 dn D_4,11,$000
 dn ___,0,$E00
 dn D_5,3,$26F
 dn D_4,11,$000
 dn ___,0,$000
 dn ___,0,$E00
 dn D_5,11,$000
 dn ___,0,$E00
 dn D_4,11,$000
 dn ___,0,$E00

P21:
 dn B_4,1,$000
 dn ___,0,$000
 dn ___,0,$000
 dn ___,0,$000
 dn ___,0,$000
 dn ___,0,$000
 dn ___,0,$000
 dn ___,0,$000
 dn B_4,1,$000
 dn D_5,1,$30F
 dn ___,0,$30F
 dn ___,0,$000
 dn ___,0,$000
 dn ___,0,$000
 dn ___,0,$000
 dn ___,0,$000
 dn B_4,1,$000
 dn ___,0,$000
 dn ___,0,$000
 dn ___,0,$000
 dn ___,0,$000
 dn ___,0,$000
 dn ___,0,$000
 dn ___,0,$000
 dn B_4,1,$000
 dn D_5,1,$30F
 dn ___,0,$30F
 dn ___,0,$000
 dn ___,0,$000
 dn ___,0,$000
 dn ___,0,$000
 dn ___,0,$000
 dn E_5,1,$000
 dn ___,0,$000
 dn ___,0,$000
 dn ___,0,$000
 dn E_5,1,$000
 dn D_5,1,$30F
 dn ___,0,$30F
 dn ___,0,$000
 dn D_5,1,$000
 dn ___,0,$000
 dn ___,0,$000
 dn ___,0,$000
 dn ___,0,$000
 dn ___,0,$000
 dn ___,0,$000
 dn ___,0,$000
 dn ___,0,$000
 dn ___,0,$000
 dn ___,0,$000
 dn ___,0,$000
 dn ___,0,$000
 dn ___,0,$000
 dn ___,0,$000
 dn ___,0,$000
 dn B_4,1,$000
 dn ___,0,$000
 dn ___,0,$000
 dn ___,0,$000
 dn B_4,1,$000
 dn ___,0,$000
 dn ___,0,$000
 dn ___,0,$000

P22:
 dn D_4,2,$CFF
 dn G_4,2,$C77
 dn G_4,2,$CFF
 dn D_4,2,$C77
 dn D_5,2,$CFF
 dn G_4,2,$C77
 dn B_4,2,$CFF
 dn B_4,2,$C77
 dn G_5,2,$CFF
 dn G_4,2,$C77
 dn D_5,2,$CFF
 dn G_5,2,$C77
 dn B_4,2,$CFF
 dn D_5,2,$C77
 dn G_4,2,$CFF
 dn B_4,2,$C77
 dn D_4,2,$CFF
 dn G_4,2,$C77
 dn G_4,2,$CFF
 dn D_4,2,$C77
 dn D_5,2,$CFF
 dn G_4,2,$C77
 dn B_4,2,$CFF
 dn B_4,2,$C77
 dn G_5,2,$CFF
 dn G_4,2,$C77
 dn D_5,2,$CFF
 dn G_5,2,$C77
 dn B_4,2,$CFF
 dn D_5,2,$C77
 dn G_4,2,$CFF
 dn B_4,2,$C77
 dn D_4,2,$CFF
 dn G_4,2,$C77
 dn G_4,2,$CFF
 dn D_4,2,$C77
 dn D_5,2,$CFF
 dn G_4,2,$C77
 dn B_4,2,$CFF
 dn B_4,2,$C77
 dn G_5,2,$CFF
 dn G_4,2,$C77
 dn D_5,2,$CFF
 dn G_5,2,$C77
 dn B_4,2,$CFF
 dn D_5,2,$C77
 dn G_4,2,$CFF
 dn B_4,2,$C77
 dn D_4,2,$CFF
 dn G_4,2,$C77
 dn G_4,2,$CFF
 dn D_4,2,$C77
 dn D_5,2,$CFF
 dn G_4,2,$C77
 dn B_4,2,$CFF
 dn B_4,2,$C77
 dn G_5,2,$CFF
 dn G_4,2,$C77
 dn D_5,2,$CFF
 dn G_5,2,$C77
 dn B_4,2,$CFF
 dn D_5,2,$C77
 dn G_4,2,$CFF
 dn B_4,2,$C77

P23:
 dn D_5,3,$26F
 dn G_3,11,$000
 dn ___,0,$000
 dn ___,0,$000
 dn G_4,11,$000
 dn ___,0,$E00
 dn G_3,11,$000
 dn ___,0,$E00
 dn D_5,3,$26F
 dn G_3,11,$000
 dn ___,0,$000
 dn ___,0,$E00
 dn G_4,11,$000
 dn ___,0,$E00
 dn G_3,11,$000
 dn ___,0,$E00
 dn D_5,3,$26F
 dn G_3,11,$000
 dn ___,0,$000
 dn ___,0,$000
 dn G_4,11,$000
 dn ___,0,$E00
 dn G_3,11,$000
 dn ___,0,$E00
 dn D_5,3,$26F
 dn G_3,11,$000
 dn ___,0,$000
 dn ___,0,$E00
 dn G_4,11,$000
 dn ___,0,$E00
 dn G_3,11,$000
 dn ___,0,$E00
 dn D_5,3,$26F
 dn G_3,11,$000
 dn ___,0,$000
 dn ___,0,$000
 dn G_4,11,$000
 dn ___,0,$E00
 dn G_3,11,$000
 dn ___,0,$E00
 dn D_5,3,$26F
 dn G_3,11,$000
 dn ___,0,$000
 dn ___,0,$E00
 dn G_4,11,$000
 dn ___,0,$E00
 dn G_3,11,$000
 dn ___,0,$E00
 dn D_5,3,$26F
 dn G_3,11,$000
 dn ___,0,$000
 dn ___,0,$000
 dn G_4,11,$000
 dn ___,0,$E00
 dn G_3,11,$000
 dn ___,0,$E00
 dn D_5,3,$26F
 dn G_3,11,$000
 dn ___,0,$000
 dn ___,0,$E00
 dn G_4,11,$000
 dn ___,0,$E00
 dn G_3,11,$000
 dn ___,0,$E00

P24:
 dn A#4,1,$000
 dn ___,0,$000
 dn ___,0,$000
 dn ___,0,$000
 dn ___,0,$000
 dn ___,0,$000
 dn ___,0,$000
 dn ___,0,$000
 dn B_4,1,$000
 dn ___,0,$000
 dn ___,0,$000
 dn ___,0,$000
 dn B_4,1,$000
 dn ___,0,$000
 dn ___,0,$000
 dn ___,0,$000
 dn B_4,1,$000
 dn D_5,1,$30F
 dn ___,0,$30F
 dn ___,0,$000
 dn ___,0,$000
 dn ___,0,$000
 dn ___,0,$000
 dn ___,0,$000
 dn G_4,1,$000
 dn ___,0,$000
 dn ___,0,$000
 dn ___,0,$000
 dn ___,0,$000
 dn ___,0,$000
 dn ___,0,$000
 dn ___,0,$000
 dn G_4,1,$000
 dn ___,0,$000
 dn ___,0,$000
 dn ___,0,$000
 dn G_4,1,$000
 dn F#4,1,$30F
 dn ___,0,$30F
 dn ___,0,$000
 dn F#4,1,$000
 dn ___,0,$000
 dn ___,0,$000
 dn ___,0,$000
 dn ___,0,$000
 dn ___,0,$000
 dn ___,0,$000
 dn ___,0,$000
 dn ___,0,$000
 dn ___,0,$000
 dn ___,0,$000
 dn ___,0,$000
 dn ___,0,$000
 dn ___,0,$000
 dn ___,0,$000
 dn ___,0,$000
 dn A_4,1,$000
 dn ___,0,$000
 dn ___,0,$000
 dn ___,0,$000
 dn B_4,1,$000
 dn ___,0,$000
 dn ___,0,$000
 dn ___,0,$000

P25:
 dn D_4,2,$CFF
 dn G_4,2,$C77
 dn G_4,2,$CFF
 dn D_4,2,$C77
 dn D_5,2,$CFF
 dn G_4,2,$C77
 dn B_4,2,$CFF
 dn B_4,2,$C77
 dn G_5,2,$CFF
 dn G_4,2,$C77
 dn D_5,2,$CFF
 dn G_5,2,$C77
 dn B_4,2,$CFF
 dn D_5,2,$C77
 dn G_4,2,$CFF
 dn B_4,2,$C77
 dn D_4,2,$CFF
 dn G_4,2,$C77
 dn G_4,2,$CFF
 dn D_4,2,$C77
 dn D_5,2,$CFF
 dn G_4,2,$C77
 dn B_4,2,$CFF
 dn B_4,2,$C77
 dn G_5,2,$CFF
 dn G_4,2,$C77
 dn D_5,2,$CFF
 dn G_5,2,$C77
 dn B_4,2,$CFF
 dn D_5,2,$C77
 dn G_4,2,$CFF
 dn B_4,2,$C77
 dn D_4,2,$CFF
 dn F#4,2,$C77
 dn F#4,2,$CFF
 dn D_4,2,$C77
 dn A_4,2,$CFF
 dn F#4,2,$C77
 dn F#4,2,$CFF
 dn A_4,2,$C77
 dn F#5,2,$CFF
 dn F#4,2,$C77
 dn D_5,2,$CFF
 dn F#5,2,$C77
 dn A_4,2,$CFF
 dn D_5,2,$C77
 dn F#4,2,$CFF
 dn A_4,2,$C77
 dn D_4,2,$CFF
 dn F#4,2,$C77
 dn F#4,2,$CFF
 dn D_4,2,$C77
 dn A_4,2,$CFF
 dn F#4,2,$C77
 dn F#4,2,$CFF
 dn A_4,2,$C77
 dn F#5,2,$CFF
 dn F#4,2,$C77
 dn D_5,2,$CFF
 dn F#5,2,$C77
 dn A_4,2,$CFF
 dn D_5,2,$C77
 dn F#4,2,$CFF
 dn A_4,2,$C77

P26:
 dn D_5,3,$26F
 dn G_3,11,$000
 dn ___,0,$000
 dn ___,0,$000
 dn G_4,11,$000
 dn ___,0,$E00
 dn G_3,11,$000
 dn ___,0,$E00
 dn D_5,3,$26F
 dn G_3,11,$000
 dn ___,0,$000
 dn ___,0,$E00
 dn G_4,11,$000
 dn ___,0,$E00
 dn G_3,11,$000
 dn ___,0,$E00
 dn D_5,3,$26F
 dn G_3,11,$000
 dn ___,0,$000
 dn ___,0,$000
 dn G_4,11,$000
 dn ___,0,$E00
 dn G_3,11,$000
 dn ___,0,$E00
 dn D_5,3,$26F
 dn G_3,11,$000
 dn ___,0,$000
 dn ___,0,$E00
 dn G_4,11,$000
 dn ___,0,$E00
 dn G_3,11,$000
 dn ___,0,$E00
 dn D_5,3,$26F
 dn D_4,11,$000
 dn ___,0,$000
 dn ___,0,$000
 dn D_5,11,$000
 dn ___,0,$E00
 dn D_4,11,$000
 dn ___,0,$E00
 dn D_5,3,$26F
 dn D_4,11,$000
 dn ___,0,$000
 dn ___,0,$E00
 dn D_5,11,$000
 dn ___,0,$E00
 dn D_4,11,$000
 dn ___,0,$E00
 dn D_5,3,$26F
 dn D_4,11,$000
 dn ___,0,$000
 dn ___,0,$000
 dn D_5,11,$000
 dn ___,0,$E00
 dn D_4,11,$000
 dn ___,0,$E00
 dn D_5,3,$26F
 dn D_4,11,$000
 dn ___,0,$000
 dn ___,0,$E00
 dn D_5,11,$000
 dn ___,0,$E00
 dn D_4,11,$000
 dn ___,0,$E00

P27:
 dn C_5,1,$000
 dn ___,0,$000
 dn ___,0,$000
 dn ___,0,$000
 dn ___,0,$000
 dn ___,0,$000
 dn ___,0,$000
 dn ___,0,$000
 dn B_4,1,$000
 dn ___,0,$000
 dn ___,0,$000
 dn ___,0,$000
 dn ___,0,$000
 dn ___,0,$000
 dn ___,0,$000
 dn ___,0,$000
 dn D_5,1,$000
 dn ___,0,$000
 dn ___,0,$000
 dn ___,0,$000
 dn ___,0,$000
 dn ___,0,$000
 dn ___,0,$000
 dn ___,0,$000
 dn C_5,1,$000
 dn ___,0,$000
 dn ___,0,$000
 dn ___,0,$000
 dn ___,0,$000
 dn ___,0,$000
 dn ___,0,$000
 dn ___,0,$000
 dn G#4,1,$000
 dn ___,0,$000
 dn ___,0,$000
 dn ___,0,$000
 dn G#4,1,$000
 dn A_4,1,$30F
 dn ___,0,$30F
 dn ___,0,$000
 dn A_4,1,$000
 dn ___,0,$000
 dn ___,0,$000
 dn ___,0,$000
 dn ___,0,$000
 dn ___,0,$000
 dn ___,0,$000
 dn ___,0,$000
 dn ___,0,$000
 dn ___,0,$000
 dn ___,0,$000
 dn ___,0,$000
 dn ___,0,$000
 dn ___,0,$000
 dn ___,0,$000
 dn ___,0,$000
 dn D_5,1,$000
 dn ___,0,$000
 dn ___,0,$000
 dn ___,0,$000
 dn D_5,1,$000
 dn ___,0,$000
 dn ___,0,$000
 dn ___,0,$000

P28:
 dn D_4,2,$CFF
 dn F#4,2,$C77
 dn F#4,2,$CFF
 dn D_4,2,$C77
 dn A_4,2,$CFF
 dn F#4,2,$C77
 dn F#4,2,$CFF
 dn A_4,2,$C77
 dn F#5,2,$CFF
 dn F#4,2,$C77
 dn D_5,2,$CFF
 dn F#5,2,$C77
 dn A_4,2,$CFF
 dn D_5,2,$C77
 dn F#4,2,$CFF
 dn A_4,2,$C77
 dn D_4,2,$CFF
 dn F#4,2,$C77
 dn F#4,2,$CFF
 dn D_4,2,$C77
 dn A_4,2,$CFF
 dn F#4,2,$C77
 dn F#4,2,$CFF
 dn A_4,2,$C77
 dn F#5,2,$CFF
 dn F#4,2,$C77
 dn D_5,2,$CFF
 dn F#5,2,$C77
 dn A_4,2,$CFF
 dn D_5,2,$C77
 dn F#4,2,$CFF
 dn A_4,2,$C77
 dn D_4,2,$CFF
 dn F#4,2,$C77
 dn F#4,2,$CFF
 dn D_4,2,$C77
 dn A_4,2,$CFF
 dn F#4,2,$C77
 dn F#4,2,$CFF
 dn A_4,2,$C77
 dn F#5,2,$CFF
 dn F#4,2,$C77
 dn D_5,2,$CFF
 dn F#5,2,$C77
 dn A_4,2,$CFF
 dn D_5,2,$C77
 dn F#4,2,$CFF
 dn A_4,2,$C77
 dn D_4,2,$CFF
 dn F#4,2,$C77
 dn F#4,2,$CFF
 dn D_4,2,$C77
 dn A_4,2,$CFF
 dn F#4,2,$C77
 dn F#4,2,$CFF
 dn A_4,2,$C77
 dn F#5,2,$CFF
 dn F#4,2,$C77
 dn D_5,2,$CFF
 dn F#5,2,$C77
 dn A_4,2,$CFF
 dn D_5,2,$C77
 dn F#4,2,$CFF
 dn A_4,2,$C77

P29:
 dn D_5,3,$26F
 dn D_4,11,$000
 dn ___,0,$000
 dn ___,0,$000
 dn D_5,11,$000
 dn ___,0,$E00
 dn D_4,11,$000
 dn ___,0,$E00
 dn D_5,3,$26F
 dn D_4,11,$000
 dn ___,0,$000
 dn ___,0,$E00
 dn D_5,11,$000
 dn ___,0,$E00
 dn D_4,11,$000
 dn ___,0,$E00
 dn D_5,3,$26F
 dn D_4,11,$000
 dn ___,0,$000
 dn ___,0,$000
 dn D_5,11,$000
 dn ___,0,$E00
 dn D_4,11,$000
 dn ___,0,$E00
 dn D_5,3,$26F
 dn D_4,11,$000
 dn ___,0,$000
 dn ___,0,$E00
 dn D_5,11,$000
 dn ___,0,$E00
 dn D_4,11,$000
 dn ___,0,$E00
 dn D_5,3,$26F
 dn D_4,11,$000
 dn ___,0,$000
 dn ___,0,$000
 dn D_5,11,$000
 dn ___,0,$E00
 dn D_4,11,$000
 dn ___,0,$E00
 dn D_5,3,$26F
 dn D_4,11,$000
 dn ___,0,$000
 dn ___,0,$E00
 dn D_5,11,$000
 dn ___,0,$E00
 dn D_4,11,$000
 dn ___,0,$E00
 dn D_5,3,$26F
 dn D_4,11,$000
 dn ___,0,$000
 dn ___,0,$000
 dn D_5,11,$000
 dn ___,0,$E00
 dn D_4,11,$000
 dn ___,0,$E00
 dn D_5,3,$26F
 dn D_4,11,$000
 dn ___,0,$000
 dn ___,0,$E00
 dn D_5,11,$000
 dn ___,0,$E00
 dn D_4,11,$000
 dn ___,0,$E00

P30:
 dn F#5,1,$000
 dn ___,0,$000
 dn ___,0,$000
 dn ___,0,$000
 dn ___,0,$000
 dn ___,0,$000
 dn ___,0,$000
 dn ___,0,$000
 dn E_5,1,$000
 dn ___,0,$000
 dn ___,0,$000
 dn ___,0,$000
 dn ___,0,$000
 dn ___,0,$000
 dn ___,0,$000
 dn ___,0,$000
 dn D_5,1,$000
 dn ___,0,$000
 dn ___,0,$000
 dn ___,0,$000
 dn ___,0,$000
 dn ___,0,$000
 dn ___,0,$000
 dn ___,0,$000
 dn C_5,1,$000
 dn ___,0,$000
 dn ___,0,$000
 dn ___,0,$000
 dn ___,0,$000
 dn ___,0,$000
 dn ___,0,$000
 dn ___,0,$000
 dn C_5,1,$000
 dn ___,0,$000
 dn ___,0,$000
 dn ___,0,$000
 dn C_5,1,$000
 dn B_4,1,$30F
 dn ___,0,$30F
 dn ___,0,$000
 dn B_4,1,$000
 dn ___,0,$000
 dn ___,0,$000
 dn ___,0,$000
 dn ___,0,$000
 dn ___,0,$000
 dn ___,0,$000
 dn ___,0,$000
 dn ___,0,$000
 dn ___,0,$000
 dn ___,0,$000
 dn ___,0,$000
 dn ___,0,$000
 dn ___,0,$000
 dn ___,0,$000
 dn ___,0,$000
 dn D_5,1,$000
 dn ___,0,$000
 dn D_5,1,$000
 dn ___,0,$000
 dn D_5,1,$000
 dn ___,0,$000
 dn D_5,1,$000
 dn ___,0,$000

P31:
 dn D_4,2,$CFF
 dn F#4,2,$C77
 dn F#4,2,$CFF
 dn D_4,2,$C77
 dn A_4,2,$CFF
 dn F#4,2,$C77
 dn F#4,2,$CFF
 dn A_4,2,$C77
 dn F#5,2,$CFF
 dn F#4,2,$C77
 dn D_5,2,$CFF
 dn F#5,2,$C77
 dn A_4,2,$CFF
 dn D_5,2,$C77
 dn F#4,2,$CFF
 dn A_4,2,$C77
 dn D_4,2,$CFF
 dn F#4,2,$C77
 dn F#4,2,$CFF
 dn D_4,2,$C77
 dn A_4,2,$CFF
 dn F#4,2,$C77
 dn F#4,2,$CFF
 dn A_4,2,$C77
 dn F#5,2,$CFF
 dn F#4,2,$C77
 dn D_5,2,$CFF
 dn F#5,2,$C77
 dn A_4,2,$CFF
 dn D_5,2,$C77
 dn F#4,2,$CFF
 dn A_4,2,$C77
 dn D_4,2,$CFF
 dn G_4,2,$C77
 dn G_4,2,$CFF
 dn D_4,2,$C77
 dn D_5,2,$CFF
 dn G_4,2,$C77
 dn B_4,2,$CFF
 dn B_4,2,$C77
 dn G_5,2,$CFF
 dn G_4,2,$C77
 dn D_5,2,$CFF
 dn G_5,2,$C77
 dn B_4,2,$CFF
 dn D_5,2,$C77
 dn G_4,2,$CFF
 dn B_4,2,$C77
 dn D_4,2,$CFF
 dn G_4,2,$C77
 dn G_4,2,$CFF
 dn D_4,2,$C77
 dn D_5,2,$CFF
 dn G_4,2,$C77
 dn B_4,2,$CFF
 dn B_4,2,$C77
 dn G_5,2,$CFF
 dn G_4,2,$C77
 dn D_5,2,$CFF
 dn G_5,2,$C77
 dn B_4,2,$CFF
 dn D_5,2,$C77
 dn G_4,2,$CFF
 dn B_4,2,$C77

P32:
 dn D_5,3,$26F
 dn D_4,11,$000
 dn ___,0,$000
 dn ___,0,$000
 dn D_5,11,$000
 dn ___,0,$E00
 dn D_4,11,$000
 dn ___,0,$E00
 dn D_5,3,$26F
 dn D_4,11,$000
 dn ___,0,$000
 dn ___,0,$E00
 dn D_5,11,$000
 dn ___,0,$E00
 dn D_4,11,$000
 dn ___,0,$E00
 dn D_5,3,$26F
 dn D_4,11,$000
 dn ___,0,$000
 dn ___,0,$000
 dn D_5,11,$000
 dn ___,0,$E00
 dn D_4,11,$000
 dn ___,0,$E00
 dn D_5,3,$26F
 dn D_4,11,$000
 dn ___,0,$000
 dn ___,0,$E00
 dn D_5,11,$000
 dn ___,0,$E00
 dn D_4,11,$000
 dn ___,0,$E00
 dn D_5,3,$26F
 dn G_3,11,$000
 dn ___,0,$000
 dn ___,0,$000
 dn G_4,11,$000
 dn ___,0,$E00
 dn G_3,11,$000
 dn ___,0,$E00
 dn D_5,3,$26F
 dn G_3,11,$000
 dn ___,0,$000
 dn ___,0,$E00
 dn G_4,11,$000
 dn ___,0,$E00
 dn G_3,11,$000
 dn ___,0,$E00
 dn D_5,3,$26F
 dn G_3,11,$000
 dn ___,0,$000
 dn ___,0,$000
 dn G_4,11,$000
 dn ___,0,$E00
 dn G_3,11,$000
 dn ___,0,$E00
 dn D_5,3,$26F
 dn G_3,11,$000
 dn ___,0,$000
 dn ___,0,$E00
 dn G_4,11,$000
 dn ___,0,$E00
 dn G_3,11,$000
 dn ___,0,$E00

P33:
 dn G_5,1,$000
 dn ___,0,$000
 dn ___,0,$000
 dn ___,0,$000
 dn ___,0,$000
 dn ___,0,$000
 dn ___,0,$000
 dn ___,0,$000
 dn F#5,1,$000
 dn ___,0,$000
 dn ___,0,$000
 dn ___,0,$000
 dn F#5,1,$000
 dn ___,0,$000
 dn ___,0,$000
 dn ___,0,$000
 dn G_5,1,$000
 dn A_5,1,$30F
 dn ___,0,$30F
 dn ___,0,$000
 dn ___,0,$000
 dn ___,0,$000
 dn ___,0,$000
 dn ___,0,$000
 dn G_5,1,$000
 dn ___,0,$000
 dn ___,0,$000
 dn ___,0,$000
 dn ___,0,$000
 dn ___,0,$000
 dn ___,0,$000
 dn ___,0,$000
 dn D_5,1,$000
 dn ___,0,$000
 dn ___,0,$000
 dn ___,0,$000
 dn D_5,1,$000
 dn C_5,1,$30F
 dn ___,0,$30F
 dn ___,0,$30F
 dn ___,0,$000
 dn ___,0,$000
 dn ___,0,$000
 dn ___,0,$000
 dn ___,0,$000
 dn ___,0,$000
 dn ___,0,$000
 dn ___,0,$000
 dn ___,0,$000
 dn ___,0,$000
 dn ___,0,$000
 dn ___,0,$000
 dn ___,0,$000
 dn ___,0,$000
 dn ___,0,$000
 dn ___,0,$000
 dn C_5,1,$000
 dn ___,0,$000
 dn B_4,1,$000
 dn ___,0,$000
 dn C_5,1,$000
 dn ___,0,$000
 dn D_5,1,$000
 dn ___,0,$000

P34:
 dn E_5,1,$000
 dn ___,0,$000
 dn ___,0,$000
 dn ___,0,$000
 dn ___,0,$000
 dn ___,0,$000
 dn E_5,1,$000
 dn D#5,1,$000
 dn E_5,1,$000
 dn ___,0,$000
 dn D#5,1,$000
 dn ___,0,$000
 dn E_5,1,$000
 dn ___,0,$000
 dn F#5,1,$000
 dn ___,0,$000
 dn G_5,1,$000
 dn ___,0,$000
 dn ___,0,$000
 dn ___,0,$000
 dn ___,0,$000
 dn ___,0,$000
 dn G_5,1,$000
 dn F#5,1,$000
 dn G_5,1,$000
 dn ___,0,$000
 dn F#5,1,$000
 dn ___,0,$000
 dn G_5,1,$000
 dn ___,0,$000
 dn A_5,1,$000
 dn ___,0,$000
 dn B_5,1,$000
 dn ___,0,$000
 dn ___,0,$000
 dn ___,0,$000
 dn E_6,1,$000
 dn ___,0,$000
 dn ___,0,$000
 dn ___,0,$000
 dn D_6,1,$000
 dn ___,0,$000
 dn ___,0,$000
 dn ___,0,$000
 dn ___,0,$000
 dn ___,0,$000
 dn ___,0,$000
 dn ___,0,$000
 dn ___,0,$000
 dn ___,0,$000
 dn ___,0,$000
 dn ___,0,$000
 dn ___,0,$000
 dn ___,0,$000
 dn ___,0,$000
 dn ___,0,$000
 dn D_6,1,$000
 dn ___,0,$000
 dn C#6,1,$000
 dn ___,0,$000
 dn C_6,1,$000
 dn ___,0,$000
 dn B_5,1,$000
 dn ___,0,$000

P35:
 dn A_5,1,$000
 dn ___,0,$000
 dn ___,0,$000
 dn ___,0,$000
 dn ___,0,$000
 dn ___,0,$000
 dn ___,0,$000
 dn ___,0,$000
 dn G#5,1,$000
 dn ___,0,$000
 dn ___,0,$000
 dn ___,0,$000
 dn A_5,1,$000
 dn ___,0,$000
 dn ___,0,$000
 dn ___,0,$000
 dn D_6,1,$000
 dn ___,0,$000
 dn ___,0,$000
 dn ___,0,$000
 dn ___,0,$000
 dn ___,0,$000
 dn ___,0,$000
 dn ___,0,$000
 dn A_5,1,$000
 dn ___,0,$000
 dn ___,0,$000
 dn ___,0,$000
 dn ___,0,$000
 dn ___,0,$000
 dn ___,0,$000
 dn ___,0,$000
 dn G_5,1,$000
 dn ___,0,$000
 dn ___,0,$000
 dn ___,0,$000
 dn ___,0,$000
 dn ___,0,$000
 dn ___,0,$000
 dn ___,0,$000
 dn ___,0,$000
 dn ___,0,$000
 dn ___,0,$000
 dn ___,0,$000
 dn ___,0,$000
 dn ___,0,$000
 dn ___,0,$000
 dn ___,0,$000
 dn ___,0,$000
 dn ___,0,$000
 dn ___,0,$000
 dn ___,0,$000
 dn G_5,1,$000
 dn ___,0,$000
 dn ___,0,$000
 dn ___,0,$000
 dn G_5,1,$000
 dn ___,0,$000
 dn ___,0,$000
 dn ___,0,$000
 dn G_5,1,$000
 dn ___,0,$000
 dn ___,0,$000
 dn ___,0,$B02

duty_instruments:
itSquareinst1: db 8,128,245,128
itSquareinst2: db 8,64,241,128
itSquareinst3: db 8,128,240,128
itSquareinst4: db 8,192,240,128
itSquareinst5: db 8,0,241,128
itSquareinst6: db 8,64,241,128
itSquareinst7: db 8,128,241,128
itSquareinst8: db 8,192,241,128
itSquareinst9: db 8,128,240,128
itSquareinst10: db 8,128,240,128
itSquareinst11: db 8,128,240,128
itSquareinst12: db 8,128,240,128
itSquareinst13: db 8,128,240,128
itSquareinst14: db 8,128,240,128
itSquareinst15: db 8,128,240,128


wave_instruments:
itWaveinst1: db 0,32,0,128
itWaveinst2: db 0,32,1,128
itWaveinst3: db 0,32,2,128
itWaveinst4: db 0,32,3,128
itWaveinst5: db 0,32,4,128
itWaveinst6: db 0,32,5,128
itWaveinst7: db 0,32,6,128
itWaveinst8: db 0,32,7,128
itWaveinst9: db 0,32,8,128
itWaveinst10: db 0,32,9,128
itWaveinst11: db 0,32,6,128
itWaveinst12: db 0,32,11,128
itWaveinst13: db 0,32,12,128
itWaveinst14: db 0,32,13,128
itWaveinst15: db 0,32,14,128


noise_instruments:
itNoiseinst1: db 161,0,32,20,13,6,32,32
itNoiseinst2: db 113,0,32,21,21,21,21,21
itNoiseinst3: db 162,0,27,21,32,32,32,30
itNoiseinst4: db 240,0,0,0,0,0,0,0
itNoiseinst5: db 240,0,0,0,0,0,0,0
itNoiseinst6: db 240,0,0,0,0,0,0,0
itNoiseinst7: db 240,0,0,0,0,0,0,0
itNoiseinst8: db 240,0,0,0,0,0,0,0
itNoiseinst9: db 240,0,0,0,0,0,0,0
itNoiseinst10: db 240,0,0,0,0,0,0,0
itNoiseinst11: db 240,0,0,0,0,0,0,0
itNoiseinst12: db 240,0,0,0,0,0,0,0
itNoiseinst13: db 240,0,0,0,0,0,0,0
itNoiseinst14: db 240,0,0,0,0,0,0,0
itNoiseinst15: db 240,0,0,0,0,0,0,0


routines:
__hUGE_Routine_0:

__end_hUGE_Routine_0:
ret

__hUGE_Routine_1:

__end_hUGE_Routine_1:
ret

__hUGE_Routine_2:

__end_hUGE_Routine_2:
ret

__hUGE_Routine_3:

__end_hUGE_Routine_3:
ret

__hUGE_Routine_4:

__end_hUGE_Routine_4:
ret

__hUGE_Routine_5:

__end_hUGE_Routine_5:
ret

__hUGE_Routine_6:

__end_hUGE_Routine_6:
ret

__hUGE_Routine_7:

__end_hUGE_Routine_7:
ret

__hUGE_Routine_8:

__end_hUGE_Routine_8:
ret

__hUGE_Routine_9:

__end_hUGE_Routine_9:
ret

__hUGE_Routine_10:

__end_hUGE_Routine_10:
ret

__hUGE_Routine_11:

__end_hUGE_Routine_11:
ret

__hUGE_Routine_12:

__end_hUGE_Routine_12:
ret

__hUGE_Routine_13:

__end_hUGE_Routine_13:
ret

__hUGE_Routine_14:

__end_hUGE_Routine_14:
ret

__hUGE_Routine_15:

__end_hUGE_Routine_15:
ret

waves:
wave0: db 0,0,255,255,255,255,255,255,255,255,255,255,255,255,255,255
wave1: db 0,0,0,0,255,255,255,255,255,255,255,255,255,255,255,255
wave2: db 0,0,0,0,0,0,0,0,255,255,255,255,255,255,255,255
wave3: db 0,0,0,0,0,0,0,0,0,0,0,0,255,255,255,255
wave4: db 0,1,18,35,52,69,86,103,120,137,154,171,188,205,222,239
wave5: db 254,220,186,152,118,84,50,16,18,52,86,120,154,188,222,255
wave6: db 122,205,220,181,1,85,86,205,220,184,98,21,90,205,221,184
wave7: db 15,15,15,15,15,15,15,15,15,15,15,15,15,15,15,15
wave8: db 254,252,250,248,246,244,242,240,242,244,246,248,250,252,254,255
wave9: db 254,221,204,187,170,153,136,119,138,189,241,36,87,138,189,238
wave10: db 132,17,97,237,87,71,90,173,206,163,23,121,221,32,3,71
wave11: db 217,160,78,215,117,204,36,12,118,74,120,173,94,206,185,24
wave12: db 208,29,62,136,1,167,169,227,54,106,121,37,51,91,102,234
wave13: db 51,85,41,103,232,129,192,87,193,49,231,6,17,125,228,135
wave14: db 135,130,152,108,49,140,39,225,205,9,165,230,187,225,93,121
wave15: db 173,32,27,237,23,154,80,166,51,156,179,38,33,164,136,21

